<svg xmlns="http://www.w3.org/2000/svg" xmlns:xlink="http://www.w3.org/1999/xlink" width="500" zoomAndPan="magnify" viewBox="0 0 375 374.999991" height="500" preserveAspectRatio="xMidYMid meet" version="1.0"><defs><clipPath id="1f64a7b659"><path d="M 7.5 0 L 367.5 0 L 367.5 375 L 7.5 375 Z M 7.5 0 " clip-rule="nonzero"/></clipPath><clipPath id="3782c036f4"><path d="M 194.25 326.429688 C 194.597656 326.429688 194.945312 326.367188 195.277344 326.246094 C 237.109375 310.886719 265.515625 291.335938 284.683594 264.722656 C 294.09375 251.660156 299.066406 236.1875 299.066406 219.984375 L 299.066406 103.773438 C 299.066406 95.847656 294.886719 88.441406 288.160156 84.445312 C 262.332031 69.121094 234.050781 58.082031 204.09375 51.632812 C 197.566406 50.222656 190.941406 50.222656 184.40625 51.632812 C 154.457031 58.082031 126.179688 69.121094 100.347656 84.445312 C 93.617188 88.441406 89.4375 95.847656 89.4375 103.773438 L 89.4375 219.984375 C 89.4375 236.1875 94.410156 251.65625 103.824219 264.722656 C 122.984375 291.332031 151.394531 310.882812 193.226562 326.246094 C 193.554688 326.371094 193.898438 326.429688 194.25 326.429688 Z M 108.648438 261.25 C 99.972656 249.199219 95.382812 234.929688 95.382812 219.984375 L 95.382812 103.773438 C 95.382812 97.9375 98.449219 92.492188 103.382812 89.566406 C 128.652344 74.570312 156.335938 63.765625 185.652344 57.449219 C 188.503906 56.835938 191.375 56.53125 194.246094 56.53125 C 197.117188 56.53125 199.988281 56.835938 202.839844 57.449219 C 232.164062 63.765625 259.84375 74.570312 285.117188 89.566406 C 290.050781 92.492188 293.113281 97.9375 293.113281 103.773438 L 293.113281 219.984375 C 293.113281 234.9375 288.527344 249.203125 279.851562 261.25 C 261.566406 286.632812 234.351562 305.410156 194.25 320.285156 C 154.144531 305.410156 126.929688 286.632812 108.648438 261.25 Z M 178.632812 355.523438 C 178.464844 357.046875 177.175781 358.179688 175.675781 358.179688 C 175.570312 358.179688 175.460938 358.171875 175.355469 358.160156 C 149.632812 355.371094 125.421875 347.066406 103.386719 333.480469 C 101.988281 332.617188 101.558594 330.785156 102.417969 329.382812 C 103.28125 327.988281 105.113281 327.550781 106.511719 328.414062 C 127.789062 341.535156 151.167969 349.550781 175.996094 352.246094 C 177.628906 352.421875 178.804688 353.886719 178.632812 355.523438 Z M 297.261719 46.605469 L 306.601562 35.875 C 307.679688 34.636719 307.550781 32.757812 306.308594 31.679688 C 305.070312 30.601562 303.191406 30.726562 302.113281 31.972656 L 292.394531 43.140625 C 271.308594 28.558594 246.800781 18.515625 220.179688 14.519531 L 220.179688 3.039062 C 220.179688 1.390625 218.851562 0.0625 217.203125 0.0625 C 215.558594 0.0625 214.230469 1.390625 214.230469 3.039062 L 214.230469 37.246094 C 207.6875 36.371094 201.023438 35.875 194.246094 35.875 C 187.46875 35.875 180.8125 36.367188 174.269531 37.246094 L 174.265625 17.0625 C 174.265625 16.992188 174.230469 16.933594 174.226562 16.867188 C 174.222656 16.792969 174.25 16.730469 174.242188 16.660156 C 174.222656 16.519531 174.148438 16.402344 174.109375 16.269531 C 174.058594 16.089844 174.011719 15.914062 173.933594 15.75 C 173.835938 15.550781 173.710938 15.386719 173.574219 15.21875 C 173.472656 15.097656 173.382812 14.972656 173.261719 14.867188 C 173.101562 14.722656 172.917969 14.609375 172.726562 14.503906 C 172.578125 14.421875 172.441406 14.34375 172.28125 14.285156 C 172.085938 14.214844 171.878906 14.1875 171.667969 14.160156 C 171.539062 14.140625 171.425781 14.082031 171.292969 14.082031 C 171.226562 14.082031 171.167969 14.113281 171.105469 14.121094 C 171.03125 14.121094 170.964844 14.097656 170.890625 14.105469 C 133.273438 19.171875 99.097656 36.0625 72.054688 62.949219 C 72.042969 62.964844 72.039062 62.980469 72.027344 62.996094 C 72.015625 63.011719 71.992188 63.015625 71.980469 63.027344 C 71.855469 63.164062 71.800781 63.328125 71.703125 63.476562 C 71.59375 63.648438 71.460938 63.804688 71.390625 63.992188 C 71.320312 64.164062 71.316406 64.347656 71.28125 64.527344 C 71.246094 64.722656 71.1875 64.910156 71.191406 65.109375 C 71.191406 65.289062 71.253906 65.464844 71.292969 65.640625 C 71.332031 65.835938 71.34375 66.035156 71.425781 66.21875 C 71.5 66.394531 71.632812 66.535156 71.742188 66.699219 C 71.847656 66.847656 71.910156 67.023438 72.046875 67.15625 C 72.0625 67.171875 72.078125 67.171875 72.09375 67.1875 C 72.109375 67.199219 72.113281 67.21875 72.128906 67.230469 L 87.007812 81.144531 C 78.785156 89.566406 71.539062 98.933594 65.464844 109.089844 L 48.960938 97.347656 C 48.921875 97.320312 48.878906 97.320312 48.839844 97.292969 C 48.800781 97.269531 48.78125 97.230469 48.742188 97.207031 C 48.601562 97.125 48.449219 97.113281 48.304688 97.058594 C 48.121094 96.984375 47.945312 96.898438 47.753906 96.867188 C 47.554688 96.832031 47.359375 96.84375 47.160156 96.851562 C 46.976562 96.855469 46.804688 96.847656 46.625 96.882812 C 46.433594 96.925781 46.257812 97.011719 46.078125 97.09375 C 45.90625 97.167969 45.738281 97.222656 45.582031 97.332031 C 45.417969 97.441406 45.292969 97.589844 45.152344 97.734375 C 45.042969 97.84375 44.90625 97.917969 44.816406 98.050781 C 44.789062 98.089844 44.785156 98.132812 44.761719 98.171875 C 44.738281 98.210938 44.695312 98.230469 44.675781 98.269531 C 29.148438 124.730469 20.9375 155.015625 20.9375 185.859375 C 20.9375 227.972656 36.230469 268.570312 63.992188 300.183594 C 64.578125 300.851562 65.402344 301.195312 66.226562 301.195312 C 66.921875 301.195312 67.621094 300.949219 68.1875 300.453125 C 69.421875 299.371094 69.546875 297.492188 68.460938 296.253906 C 64.074219 291.261719 60.046875 286.015625 56.316406 280.589844 L 68.761719 268.269531 C 83.0625 290.03125 103.105469 308.089844 127.578125 320.253906 C 129.054688 320.984375 130.835938 320.382812 131.566406 318.914062 C 132.296875 317.441406 131.695312 315.65625 130.226562 314.925781 C 105.820312 302.792969 85.992188 284.554688 72.175781 262.566406 C 72.035156 262.136719 71.828125 261.726562 71.492188 261.386719 C 71.464844 261.359375 71.429688 261.355469 71.40625 261.328125 C 57.773438 239.128906 50.21875 213.191406 50.21875 185.867188 C 50.21875 106.445312 114.832031 41.828125 194.257812 41.828125 C 273.679688 41.828125 338.296875 106.445312 338.296875 185.867188 C 338.296875 265.289062 273.679688 329.90625 194.257812 329.90625 C 192.613281 329.90625 191.28125 331.234375 191.28125 332.878906 L 191.28125 371.960938 C 191.28125 373.609375 192.613281 374.9375 194.257812 374.9375 C 195.902344 374.9375 197.230469 373.609375 197.230469 371.960938 L 197.230469 359.105469 C 241.605469 358.363281 283.1875 341.066406 314.996094 310.136719 L 319.859375 315.851562 C 303.757812 331.425781 285.207031 343.757812 264.632812 352.457031 C 263.117188 353.097656 262.414062 354.84375 263.050781 356.359375 C 263.53125 357.496094 264.632812 358.171875 265.792969 358.171875 C 266.179688 358.171875 266.574219 358.097656 266.953125 357.9375 C 289.078125 348.582031 308.957031 335.203125 326.050781 318.175781 C 326.171875 318.058594 326.226562 317.910156 326.320312 317.777344 C 326.4375 317.617188 326.5625 317.472656 326.640625 317.292969 C 326.722656 317.113281 326.75 316.925781 326.796875 316.738281 C 326.835938 316.554688 326.894531 316.378906 326.902344 316.195312 C 326.914062 316.003906 326.871094 315.816406 326.835938 315.621094 C 326.808594 315.4375 326.796875 315.253906 326.734375 315.078125 C 326.667969 314.890625 326.550781 314.726562 326.441406 314.554688 C 326.363281 314.417969 326.320312 314.265625 326.214844 314.144531 L 303.96875 287.992188 C 306.835938 284.917969 309.5625 281.71875 312.164062 278.410156 L 339.089844 307.421875 C 339.675781 308.050781 340.472656 308.371094 341.269531 308.371094 C 341.996094 308.371094 342.71875 308.105469 343.296875 307.578125 C 344.5 306.457031 344.570312 304.574219 343.453125 303.371094 L 323.828125 282.21875 C 330.277344 273.550781 335.902344 264.265625 340.492188 254.515625 C 341.1875 253.027344 340.554688 251.253906 339.066406 250.554688 C 337.578125 249.863281 335.808594 250.496094 335.105469 251.980469 C 330.84375 261.042969 325.640625 269.679688 319.703125 277.773438 L 315.8125 273.582031 C 327.34375 257.644531 335.808594 239.375 340.371094 219.613281 L 359.300781 226.664062 C 359.371094 226.691406 359.445312 226.683594 359.519531 226.703125 C 359.578125 226.722656 359.617188 226.761719 359.679688 226.777344 C 359.894531 226.828125 360.117188 226.847656 360.328125 226.851562 C 360.328125 226.851562 360.332031 226.851562 360.335938 226.851562 C 360.335938 226.851562 360.339844 226.851562 360.339844 226.851562 C 360.355469 226.851562 360.371094 226.84375 360.390625 226.84375 C 360.691406 226.839844 360.988281 226.789062 361.269531 226.691406 C 361.378906 226.65625 361.472656 226.589844 361.578125 226.542969 C 361.753906 226.460938 361.933594 226.378906 362.09375 226.261719 C 362.199219 226.183594 362.289062 226.085938 362.382812 225.992188 C 362.511719 225.867188 362.636719 225.742188 362.746094 225.589844 C 362.828125 225.476562 362.890625 225.34375 362.957031 225.214844 C 363.011719 225.109375 363.085938 225.023438 363.125 224.914062 C 363.148438 224.859375 363.136719 224.804688 363.152344 224.746094 C 363.175781 224.671875 363.222656 224.617188 363.238281 224.539062 C 366.113281 211.933594 367.570312 198.917969 367.570312 185.863281 C 367.5625 129.480469 340.097656 78.460938 297.261719 46.605469 Z M 91.253906 76.980469 L 78.488281 65.039062 C 103.417969 41.121094 134.34375 25.804688 168.320312 20.53125 L 168.320312 38.164062 C 138.769531 43.339844 112.175781 57.179688 91.253906 76.980469 Z M 65.519531 263.101562 L 52.96875 275.53125 C 36.042969 248.875 26.886719 217.832031 26.886719 185.863281 C 26.886719 157.167969 34.257812 128.984375 48.203125 104.117188 L 62.480469 114.273438 C 50.871094 135.5625 44.265625 159.957031 44.265625 185.863281 C 44.257812 213.769531 51.835938 240.28125 65.519531 263.101562 Z M 197.226562 353.15625 L 197.226562 335.777344 C 237.175781 334.992188 273.347656 318.550781 299.816406 292.296875 L 311.128906 305.59375 C 280.398438 335.617188 240.167969 352.414062 197.226562 353.15625 Z M 358.09375 219.871094 L 341.605469 213.726562 C 343.308594 204.695312 344.238281 195.386719 344.238281 185.867188 C 344.238281 112.011719 290.5625 50.492188 220.183594 38.167969 L 220.183594 20.542969 C 301.046875 33.132812 361.613281 103.574219 361.613281 185.863281 C 361.613281 197.328125 360.390625 208.738281 358.09375 219.871094 Z M 150.28125 7.359375 C 150.703125 8.949219 149.75 10.578125 148.160156 10.992188 C 126.492188 16.6875 106.273438 26.285156 88.074219 39.511719 C 87.546875 39.894531 86.933594 40.078125 86.328125 40.078125 C 85.40625 40.078125 84.5 39.652344 83.917969 38.851562 C 82.953125 37.527344 83.246094 35.664062 84.574219 34.699219 C 103.375 21.035156 124.261719 11.125 146.652344 5.242188 C 148.242188 4.824219 149.871094 5.769531 150.28125 7.359375 Z M 34.46875 101.171875 C 26.71875 115.769531 21.023438 131.347656 17.535156 147.472656 C 17.230469 148.871094 16 149.820312 14.628906 149.820312 C 14.421875 149.820312 14.210938 149.800781 13.996094 149.757812 C 12.390625 149.410156 11.371094 147.824219 11.714844 146.222656 C 15.320312 129.550781 21.207031 113.460938 29.21875 98.382812 C 29.992188 96.933594 31.785156 96.375 33.242188 97.152344 C 34.695312 97.921875 35.242188 99.722656 34.46875 101.171875 Z M 14.867188 163.132812 C 13.925781 170.632812 13.449219 178.28125 13.449219 185.863281 C 13.449219 187.507812 12.121094 188.839844 10.476562 188.839844 C 8.828125 188.839844 7.5 187.507812 7.5 185.863281 C 7.5 178.03125 7.992188 170.136719 8.960938 162.390625 C 9.164062 160.761719 10.640625 159.621094 12.28125 159.808594 C 13.910156 160.015625 15.070312 161.503906 14.867188 163.132812 Z M 133.746094 329.214844 C 145.527344 334.191406 157.917969 337.699219 170.578125 339.632812 C 172.203125 339.878906 173.316406 341.398438 173.066406 343.023438 C 172.84375 344.492188 171.578125 345.550781 170.128906 345.550781 C 169.980469 345.550781 169.832031 345.535156 169.679688 345.511719 C 156.535156 343.503906 143.667969 339.871094 131.433594 334.695312 C 129.917969 334.054688 129.210938 332.308594 129.851562 330.792969 C 130.484375 329.285156 132.222656 328.578125 133.746094 329.214844 Z M 255.796875 204.980469 L 255.796875 136.917969 C 255.796875 135.273438 254.464844 133.941406 252.820312 133.941406 L 135.679688 133.941406 C 134.03125 133.941406 132.703125 135.273438 132.703125 136.917969 L 132.703125 204.980469 C 132.703125 206.625 134.03125 207.953125 135.679688 207.953125 L 252.820312 207.953125 C 254.464844 207.953125 255.796875 206.625 255.796875 204.980469 Z M 249.84375 202.003906 L 138.652344 202.003906 L 138.652344 139.894531 L 249.84375 139.894531 Z M 237.445312 250.105469 L 237.445312 244.425781 C 237.445312 237.699219 231.972656 232.226562 225.246094 232.226562 L 220.179688 232.226562 L 220.179688 226.851562 L 243.351562 226.851562 C 259.554688 226.851562 272.738281 213.664062 272.738281 197.460938 L 272.738281 144.433594 C 272.738281 128.230469 259.554688 115.042969 243.351562 115.042969 L 145.148438 115.042969 C 128.945312 115.042969 115.761719 128.230469 115.761719 144.433594 L 115.761719 197.460938 C 115.761719 213.664062 128.945312 226.851562 145.148438 226.851562 L 169.828125 226.851562 L 169.828125 232.226562 L 163.253906 232.226562 C 156.523438 232.226562 151.054688 237.699219 151.054688 244.425781 L 151.054688 250.105469 C 151.054688 251.753906 152.382812 253.082031 154.027344 253.082031 L 234.46875 253.082031 C 236.113281 253.082031 237.445312 251.753906 237.445312 250.105469 Z M 231.496094 247.132812 L 157.003906 247.132812 L 157.003906 244.425781 C 157.003906 240.980469 159.804688 238.175781 163.253906 238.175781 L 172.800781 238.175781 C 174.449219 238.175781 175.777344 236.847656 175.777344 235.203125 L 175.777344 223.875 C 175.777344 222.230469 174.449219 220.898438 172.800781 220.898438 L 145.148438 220.898438 C 132.222656 220.898438 121.710938 210.386719 121.710938 197.460938 L 121.710938 144.433594 C 121.710938 131.507812 132.222656 120.996094 145.148438 120.996094 L 243.355469 120.996094 C 256.277344 120.996094 266.789062 131.507812 266.789062 144.433594 L 266.789062 197.460938 C 266.789062 210.386719 256.277344 220.898438 243.355469 220.898438 L 217.207031 220.898438 C 215.5625 220.898438 214.230469 222.230469 214.230469 223.875 L 214.230469 235.203125 C 214.230469 236.847656 215.5625 238.175781 217.207031 238.175781 L 225.25 238.175781 C 228.695312 238.175781 231.496094 240.976562 231.496094 244.425781 Z M 231.496094 247.132812 " clip-rule="nonzero"/></clipPath><linearGradient x1="60.511002" gradientTransform="matrix(2.975207, 0, 0, 2.975207, 7.500004, 0.06198)" y1="0.00000116477" x2="60.511002" gradientUnits="userSpaceOnUse" y2="125.999996" id="9fbef9fb69"><stop stop-opacity="1" stop-color="rgb(90.19928%, 27.49939%, 27.49939%)" offset="0"/><stop stop-opacity="1" stop-color="rgb(90.237427%, 27.679443%, 27.679443%)" offset="0.0078125"/><stop stop-opacity="1" stop-color="rgb(90.313721%, 28.039551%, 28.039551%)" offset="0.015625"/><stop stop-opacity="1" stop-color="rgb(90.390015%, 28.401184%, 28.401184%)" offset="0.0234375"/><stop stop-opacity="1" stop-color="rgb(90.467834%, 28.762817%, 28.762817%)" offset="0.03125"/><stop stop-opacity="1" stop-color="rgb(90.544128%, 29.122925%, 29.122925%)" offset="0.0390625"/><stop stop-opacity="1" stop-color="rgb(90.620422%, 29.484558%, 29.484558%)" offset="0.046875"/><stop stop-opacity="1" stop-color="rgb(90.696716%, 29.844666%, 29.844666%)" offset="0.0546875"/><stop stop-opacity="1" stop-color="rgb(90.77301%, 30.206299%, 30.206299%)" offset="0.0625"/><stop stop-opacity="1" stop-color="rgb(90.849304%, 30.566406%, 30.566406%)" offset="0.0703125"/><stop stop-opacity="1" stop-color="rgb(90.927124%, 30.92804%, 30.92804%)" offset="0.078125"/><stop stop-opacity="1" stop-color="rgb(91.003418%, 31.288147%, 31.288147%)" offset="0.0859375"/><stop stop-opacity="1" stop-color="rgb(91.079712%, 31.64978%, 31.64978%)" offset="0.09375"/><stop stop-opacity="1" stop-color="rgb(91.156006%, 32.009888%, 32.009888%)" offset="0.101562"/><stop stop-opacity="1" stop-color="rgb(91.2323%, 32.371521%, 32.371521%)" offset="0.109375"/><stop stop-opacity="1" stop-color="rgb(91.308594%, 32.733154%, 32.733154%)" offset="0.117188"/><stop stop-opacity="1" stop-color="rgb(91.386414%, 33.093262%, 33.093262%)" offset="0.125"/><stop stop-opacity="1" stop-color="rgb(91.462708%, 33.454895%, 33.454895%)" offset="0.132812"/><stop stop-opacity="1" stop-color="rgb(91.539001%, 33.815002%, 33.815002%)" offset="0.140625"/><stop stop-opacity="1" stop-color="rgb(91.615295%, 34.176636%, 34.176636%)" offset="0.148438"/><stop stop-opacity="1" stop-color="rgb(91.691589%, 34.536743%, 34.536743%)" offset="0.15625"/><stop stop-opacity="1" stop-color="rgb(91.767883%, 34.898376%, 34.898376%)" offset="0.164063"/><stop stop-opacity="1" stop-color="rgb(91.845703%, 35.258484%, 35.258484%)" offset="0.171875"/><stop stop-opacity="1" stop-color="rgb(91.921997%, 35.620117%, 35.620117%)" offset="0.179688"/><stop stop-opacity="1" stop-color="rgb(91.998291%, 35.980225%, 35.980225%)" offset="0.1875"/><stop stop-opacity="1" stop-color="rgb(92.074585%, 36.341858%, 36.341858%)" offset="0.195313"/><stop stop-opacity="1" stop-color="rgb(92.150879%, 36.703491%, 36.703491%)" offset="0.203125"/><stop stop-opacity="1" stop-color="rgb(92.228699%, 37.063599%, 37.063599%)" offset="0.210938"/><stop stop-opacity="1" stop-color="rgb(92.304993%, 37.425232%, 37.425232%)" offset="0.21875"/><stop stop-opacity="1" stop-color="rgb(92.381287%, 37.785339%, 37.785339%)" offset="0.226562"/><stop stop-opacity="1" stop-color="rgb(92.457581%, 38.146973%, 38.146973%)" offset="0.234375"/><stop stop-opacity="1" stop-color="rgb(92.533875%, 38.50708%, 38.50708%)" offset="0.242188"/><stop stop-opacity="1" stop-color="rgb(92.610168%, 38.868713%, 38.868713%)" offset="0.25"/><stop stop-opacity="1" stop-color="rgb(92.687988%, 39.228821%, 39.228821%)" offset="0.257812"/><stop stop-opacity="1" stop-color="rgb(92.764282%, 39.590454%, 39.590454%)" offset="0.265625"/><stop stop-opacity="1" stop-color="rgb(92.840576%, 39.950562%, 39.950562%)" offset="0.273438"/><stop stop-opacity="1" stop-color="rgb(92.91687%, 40.312195%, 40.312195%)" offset="0.28125"/><stop stop-opacity="1" stop-color="rgb(92.993164%, 40.672302%, 40.672302%)" offset="0.289062"/><stop stop-opacity="1" stop-color="rgb(93.069458%, 41.033936%, 41.033936%)" offset="0.296875"/><stop stop-opacity="1" stop-color="rgb(93.147278%, 41.395569%, 41.395569%)" offset="0.304688"/><stop stop-opacity="1" stop-color="rgb(93.223572%, 41.755676%, 41.755676%)" offset="0.3125"/><stop stop-opacity="1" stop-color="rgb(93.299866%, 42.11731%, 42.11731%)" offset="0.320312"/><stop stop-opacity="1" stop-color="rgb(93.37616%, 42.477417%, 42.477417%)" offset="0.328125"/><stop stop-opacity="1" stop-color="rgb(93.452454%, 42.83905%, 42.83905%)" offset="0.335938"/><stop stop-opacity="1" stop-color="rgb(93.530273%, 43.199158%, 43.199158%)" offset="0.34375"/><stop stop-opacity="1" stop-color="rgb(93.606567%, 43.560791%, 43.560791%)" offset="0.351563"/><stop stop-opacity="1" stop-color="rgb(93.682861%, 43.920898%, 43.920898%)" offset="0.359375"/><stop stop-opacity="1" stop-color="rgb(93.759155%, 44.282532%, 44.282532%)" offset="0.367188"/><stop stop-opacity="1" stop-color="rgb(93.835449%, 44.642639%, 44.642639%)" offset="0.375"/><stop stop-opacity="1" stop-color="rgb(93.911743%, 45.004272%, 45.004272%)" offset="0.382813"/><stop stop-opacity="1" stop-color="rgb(93.989563%, 45.365906%, 45.365906%)" offset="0.390625"/><stop stop-opacity="1" stop-color="rgb(94.065857%, 45.726013%, 45.726013%)" offset="0.398438"/><stop stop-opacity="1" stop-color="rgb(94.142151%, 46.087646%, 46.087646%)" offset="0.40625"/><stop stop-opacity="1" stop-color="rgb(94.218445%, 46.447754%, 46.447754%)" offset="0.414062"/><stop stop-opacity="1" stop-color="rgb(94.294739%, 46.809387%, 46.809387%)" offset="0.421875"/><stop stop-opacity="1" stop-color="rgb(94.371033%, 47.169495%, 47.169495%)" offset="0.429687"/><stop stop-opacity="1" stop-color="rgb(94.448853%, 47.531128%, 47.531128%)" offset="0.4375"/><stop stop-opacity="1" stop-color="rgb(94.525146%, 47.891235%, 47.891235%)" offset="0.445312"/><stop stop-opacity="1" stop-color="rgb(94.60144%, 48.252869%, 48.252869%)" offset="0.453125"/><stop stop-opacity="1" stop-color="rgb(94.677734%, 48.612976%, 48.612976%)" offset="0.460937"/><stop stop-opacity="1" stop-color="rgb(94.754028%, 48.974609%, 48.974609%)" offset="0.46875"/><stop stop-opacity="1" stop-color="rgb(94.831848%, 49.336243%, 49.336243%)" offset="0.476562"/><stop stop-opacity="1" stop-color="rgb(94.908142%, 49.69635%, 49.69635%)" offset="0.484375"/><stop stop-opacity="1" stop-color="rgb(94.984436%, 50.057983%, 50.057983%)" offset="0.492188"/><stop stop-opacity="1" stop-color="rgb(95.06073%, 50.418091%, 50.418091%)" offset="0.5"/><stop stop-opacity="1" stop-color="rgb(95.137024%, 50.779724%, 50.779724%)" offset="0.507812"/><stop stop-opacity="1" stop-color="rgb(95.213318%, 51.139832%, 51.139832%)" offset="0.515625"/><stop stop-opacity="1" stop-color="rgb(95.291138%, 51.501465%, 51.501465%)" offset="0.523438"/><stop stop-opacity="1" stop-color="rgb(95.367432%, 51.861572%, 51.861572%)" offset="0.53125"/><stop stop-opacity="1" stop-color="rgb(95.443726%, 52.223206%, 52.223206%)" offset="0.539063"/><stop stop-opacity="1" stop-color="rgb(95.52002%, 52.583313%, 52.583313%)" offset="0.546875"/><stop stop-opacity="1" stop-color="rgb(95.596313%, 52.944946%, 52.944946%)" offset="0.554688"/><stop stop-opacity="1" stop-color="rgb(95.672607%, 53.30658%, 53.30658%)" offset="0.5625"/><stop stop-opacity="1" stop-color="rgb(95.750427%, 53.666687%, 53.666687%)" offset="0.570312"/><stop stop-opacity="1" stop-color="rgb(95.826721%, 54.02832%, 54.02832%)" offset="0.578125"/><stop stop-opacity="1" stop-color="rgb(95.903015%, 54.388428%, 54.388428%)" offset="0.585938"/><stop stop-opacity="1" stop-color="rgb(95.979309%, 54.750061%, 54.750061%)" offset="0.59375"/><stop stop-opacity="1" stop-color="rgb(96.055603%, 55.110168%, 55.110168%)" offset="0.601562"/><stop stop-opacity="1" stop-color="rgb(96.133423%, 55.471802%, 55.471802%)" offset="0.609375"/><stop stop-opacity="1" stop-color="rgb(96.209717%, 55.831909%, 55.831909%)" offset="0.617188"/><stop stop-opacity="1" stop-color="rgb(96.286011%, 56.193542%, 56.193542%)" offset="0.625"/><stop stop-opacity="1" stop-color="rgb(96.362305%, 56.55365%, 56.55365%)" offset="0.632812"/><stop stop-opacity="1" stop-color="rgb(96.438599%, 56.915283%, 56.915283%)" offset="0.640625"/><stop stop-opacity="1" stop-color="rgb(96.514893%, 57.276917%, 57.276917%)" offset="0.648438"/><stop stop-opacity="1" stop-color="rgb(96.592712%, 57.637024%, 57.637024%)" offset="0.65625"/><stop stop-opacity="1" stop-color="rgb(96.669006%, 57.998657%, 57.998657%)" offset="0.664062"/><stop stop-opacity="1" stop-color="rgb(96.7453%, 58.358765%, 58.358765%)" offset="0.671875"/><stop stop-opacity="1" stop-color="rgb(96.821594%, 58.720398%, 58.720398%)" offset="0.679688"/><stop stop-opacity="1" stop-color="rgb(96.897888%, 59.080505%, 59.080505%)" offset="0.6875"/><stop stop-opacity="1" stop-color="rgb(96.974182%, 59.442139%, 59.442139%)" offset="0.695313"/><stop stop-opacity="1" stop-color="rgb(97.052002%, 59.802246%, 59.802246%)" offset="0.703125"/><stop stop-opacity="1" stop-color="rgb(97.128296%, 60.163879%, 60.163879%)" offset="0.710938"/><stop stop-opacity="1" stop-color="rgb(97.20459%, 60.523987%, 60.523987%)" offset="0.71875"/><stop stop-opacity="1" stop-color="rgb(97.280884%, 60.88562%, 60.88562%)" offset="0.726563"/><stop stop-opacity="1" stop-color="rgb(97.357178%, 61.245728%, 61.245728%)" offset="0.734375"/><stop stop-opacity="1" stop-color="rgb(97.434998%, 61.607361%, 61.607361%)" offset="0.742188"/><stop stop-opacity="1" stop-color="rgb(97.511292%, 61.968994%, 61.968994%)" offset="0.75"/><stop stop-opacity="1" stop-color="rgb(97.587585%, 62.329102%, 62.329102%)" offset="0.757812"/><stop stop-opacity="1" stop-color="rgb(97.663879%, 62.690735%, 62.690735%)" offset="0.765625"/><stop stop-opacity="1" stop-color="rgb(97.740173%, 63.050842%, 63.050842%)" offset="0.773438"/><stop stop-opacity="1" stop-color="rgb(97.816467%, 63.412476%, 63.412476%)" offset="0.78125"/><stop stop-opacity="1" stop-color="rgb(97.894287%, 63.772583%, 63.772583%)" offset="0.789062"/><stop stop-opacity="1" stop-color="rgb(97.970581%, 64.134216%, 64.134216%)" offset="0.796875"/><stop stop-opacity="1" stop-color="rgb(98.046875%, 64.494324%, 64.494324%)" offset="0.804688"/><stop stop-opacity="1" stop-color="rgb(98.123169%, 64.855957%, 64.855957%)" offset="0.8125"/><stop stop-opacity="1" stop-color="rgb(98.199463%, 65.216064%, 65.216064%)" offset="0.820312"/><stop stop-opacity="1" stop-color="rgb(98.275757%, 65.577698%, 65.577698%)" offset="0.828125"/><stop stop-opacity="1" stop-color="rgb(98.353577%, 65.939331%, 65.939331%)" offset="0.835938"/><stop stop-opacity="1" stop-color="rgb(98.429871%, 66.299438%, 66.299438%)" offset="0.84375"/><stop stop-opacity="1" stop-color="rgb(98.506165%, 66.661072%, 66.661072%)" offset="0.851562"/><stop stop-opacity="1" stop-color="rgb(98.582458%, 67.021179%, 67.021179%)" offset="0.859375"/><stop stop-opacity="1" stop-color="rgb(98.658752%, 67.382812%, 67.382812%)" offset="0.867187"/><stop stop-opacity="1" stop-color="rgb(98.736572%, 67.74292%, 67.74292%)" offset="0.875"/><stop stop-opacity="1" stop-color="rgb(98.812866%, 68.104553%, 68.104553%)" offset="0.882812"/><stop stop-opacity="1" stop-color="rgb(98.88916%, 68.464661%, 68.464661%)" offset="0.890625"/><stop stop-opacity="1" stop-color="rgb(98.965454%, 68.826294%, 68.826294%)" offset="0.898437"/><stop stop-opacity="1" stop-color="rgb(99.041748%, 69.186401%, 69.186401%)" offset="0.90625"/><stop stop-opacity="1" stop-color="rgb(99.118042%, 69.548035%, 69.548035%)" offset="0.914062"/><stop stop-opacity="1" stop-color="rgb(99.195862%, 69.909668%, 69.909668%)" offset="0.921875"/><stop stop-opacity="1" stop-color="rgb(99.272156%, 70.269775%, 70.269775%)" offset="0.929687"/><stop stop-opacity="1" stop-color="rgb(99.34845%, 70.631409%, 70.631409%)" offset="0.9375"/><stop stop-opacity="1" stop-color="rgb(99.424744%, 70.991516%, 70.991516%)" offset="0.945312"/><stop stop-opacity="1" stop-color="rgb(99.501038%, 71.353149%, 71.353149%)" offset="0.953125"/><stop stop-opacity="1" stop-color="rgb(99.577332%, 71.713257%, 71.713257%)" offset="0.960938"/><stop stop-opacity="1" stop-color="rgb(99.655151%, 72.07489%, 72.07489%)" offset="0.96875"/><stop stop-opacity="1" stop-color="rgb(99.731445%, 72.434998%, 72.434998%)" offset="0.976562"/><stop stop-opacity="1" stop-color="rgb(99.807739%, 72.796631%, 72.796631%)" offset="0.984375"/><stop stop-opacity="1" stop-color="rgb(99.884033%, 73.156738%, 73.156738%)" offset="0.992188"/><stop stop-opacity="1" stop-color="rgb(99.960327%, 73.518372%, 73.518372%)" offset="1"/></linearGradient></defs><g clip-path="url(#1f64a7b659)"><g clip-path="url(#3782c036f4)"><path fill="url(#9fbef9fb69)" d="M 7.5 0.0625 L 7.5 374.9375 L 367.5 374.9375 L 367.5 0.0625 Z M 7.5 0.0625 " fill-rule="nonzero"/></g></g></svg>